<?xml version="1.0" encoding="UTF-8"?>
<svg version="1.1" xmlns="http://www.w3.org/2000/svg" width="200" height="200">
<path d="M0 0 C66 0 132 0 200 0 C200 66 200 132 200 200 C134 200 68 200 0 200 C0 134 0 68 0 0 Z M41.16015625 18.03515625 C40.79792969 18.70417969 40.43570313 19.37320312 40.0625 20.0625 C39.68222656 20.73410156 39.30195312 21.40570313 38.91015625 22.09765625 C37.3195315 25.42226677 36.87919035 28.03288564 36.90234375 31.66796875 C36.90717773 33.00698242 36.90717773 33.00698242 36.91210938 34.37304688 C36.92048828 35.30181641 36.92886719 36.23058594 36.9375 37.1875 C36.94201172 38.12787109 36.94652344 39.06824219 36.95117188 40.03710938 C36.96295355 42.35810008 36.98088886 44.67905807 37 47 C30.73 47 24.46 47 18 47 C18 51.29 18 55.58 18 60 C24.27 60 30.54 60 37 60 C37 63.3 37 66.6 37 70 C30.73 70 24.46 70 18 70 C18 73.96 18 77.92 18 82 C24.27 82 30.54 82 37 82 C37 85.96 37 89.92 37 94 C30.73 94 24.46 94 18 94 C18 97.96 18 101.92 18 106 C24.27 106 30.54 106 37 106 C37 109.63 37 113.26 37 117 C30.73 117 24.46 117 18 117 C18 120.96 18 124.92 18 129 C24.27 129 30.54 129 37 129 C36.96519531 132.01125 36.93039063 135.0225 36.89453125 138.125 C36.87109509 141.0607 36.85290163 143.99638935 36.83520508 146.93212891 C36.82017401 148.9631013 36.79974353 150.99404154 36.77368164 153.02490234 C36.73704768 155.95418259 36.72021649 158.88303144 36.70703125 161.8125 C36.69154739 162.71178223 36.67606354 163.61106445 36.66011047 164.53759766 C36.65835951 171.18532705 37.47393461 177.03085459 41.9375 182.27734375 C42.9584375 183.09912109 42.9584375 183.09912109 44 183.9375 C44.680625 184.50339844 45.36125 185.06929687 46.0625 185.65234375 C49.27280194 187.88531587 51.9663044 188.12719282 55.76216125 188.14044189 C56.74207031 188.14615204 57.72197937 188.15186218 58.73158264 188.15774536 C59.80540695 188.15886322 60.87923126 188.15998108 61.9855957 188.16113281 C63.68354782 188.16858017 63.68354782 188.16858017 65.415802 188.17617798 C69.16913455 188.19081048 72.92242484 188.19760341 76.67578125 188.203125 C79.28028871 188.20887551 81.88479616 188.21463325 84.48930359 188.22039795 C89.25556248 188.2299685 94.02181224 188.23586579 98.78807956 188.2388947 C105.79724719 188.24337372 112.80621965 188.26091543 119.81532794 188.2898953 C125.89098253 188.31414138 131.96655671 188.32184023 138.04225731 188.32357025 C140.6246465 188.32659898 143.20703483 188.33463486 145.78939247 188.34775543 C149.40181916 188.3647995 153.01377018 188.36293936 156.6262207 188.35644531 C157.69397232 188.3656601 158.76172394 188.37487488 159.86183167 188.3843689 C166.24612442 188.34839537 170.89430085 187.80043812 175.828125 183.3515625 C176.29734375 182.78179687 176.7665625 182.21203125 177.25 181.625 C177.72953125 181.06039062 178.2090625 180.49578125 178.703125 179.9140625 C181.56479708 175.69051033 182.25148095 171.96031971 182.26742554 166.90983582 C182.27595551 165.68605728 182.28448547 164.46227875 182.29327393 163.20141602 C182.29257497 161.85327135 182.29165194 160.50512679 182.29052734 159.15698242 C182.29651471 157.73081613 182.30332073 156.30465308 182.31088257 154.87849426 C182.32852978 151.01059057 182.33323743 147.14277541 182.33451414 143.27483535 C182.33593715 140.8560639 182.34020961 138.43731485 182.34550858 136.01854897 C182.36400539 127.57379354 182.37217972 119.12910119 182.37060547 110.68432617 C182.36940451 102.82319902 182.39049859 94.96234662 182.4220928 87.10128897 C182.44828086 80.34356881 182.45897169 73.58593823 182.45769465 66.82816774 C182.45718571 62.79588648 182.46283086 58.76384941 182.48405075 54.73161888 C182.50347573 50.93692808 182.50352895 47.1427133 182.48901749 43.34800529 C182.48693346 41.95971732 182.4916061 40.57139922 182.5037384 39.18316269 C182.57581213 30.3607834 182.23590817 23.80069592 176.18359375 16.94140625 C175.60738281 16.48636719 175.03117188 16.03132813 174.4375 15.5625 C173.56931641 14.85287109 173.56931641 14.85287109 172.68359375 14.12890625 C169.58666508 12.05231139 166.86493829 11.87100466 163.251297 11.85282898 C161.78576889 11.84209602 161.78576889 11.84209602 160.29063416 11.83114624 C159.21995193 11.82845734 158.14926971 11.82576843 157.04614258 11.82299805 C155.35300934 11.81314125 155.35300934 11.81314125 153.62567139 11.80308533 C149.88195736 11.78333938 146.13828348 11.7716864 142.39453125 11.76171875 C141.11645788 11.75764322 139.83838451 11.7535677 138.52158165 11.74936867 C132.45392592 11.73065392 126.38629453 11.71609007 120.31861764 11.7077567 C113.326392 11.69799388 106.33448373 11.67169837 99.34236985 11.63125581 C93.27739781 11.5973863 87.21255853 11.58560582 81.14749718 11.58155251 C78.57233212 11.57668252 75.99717055 11.56505693 73.42206764 11.54651451 C69.81473208 11.5221553 66.20822279 11.52308291 62.60083008 11.5300293 C61.54026901 11.51721924 60.47970795 11.50440918 59.38700867 11.49121094 C52.24822282 11.5412256 46.20407715 12.45578727 41.16015625 18.03515625 Z " fill="#000000" transform="translate(0,0)"/>
<path d="M0 0 C26.73 0 53.46 0 81 0 C81 15.18 81 30.36 81 46 C54.27 46 27.54 46 0 46 C0 30.82 0 15.64 0 0 Z " fill="#000000" transform="translate(75,36)"/>
<path d="M0 0 C3.96 0 7.92 0 12 0 C12 3.63 12 7.26 12 11 C8.04 11 4.08 11 0 11 C0 7.37 0 3.74 0 0 Z " fill="#000000" transform="translate(38,48)"/>
<path d="M0 0 C3.96 0 7.92 0 12 0 C12 3.63 12 7.26 12 11 C8.04 11 4.08 11 0 11 C0 7.37 0 3.74 0 0 Z " fill="#000000" transform="translate(38,71)"/>
<path d="M0 0 C3.96 0 7.92 0 12 0 C12 3.3 12 6.6 12 10 C8.04 10 4.08 10 0 10 C0 6.7 0 3.4 0 0 Z " fill="#000000" transform="translate(38,95)"/>
<path d="M0 0 C3.96 0 7.92 0 12 0 C12 3.63 12 7.26 12 11 C8.04 11 4.08 11 0 11 C0 7.37 0 3.74 0 0 Z " fill="#000000" transform="translate(38,118)"/>
</svg>
