<?xml version="1.0" standalone="no"?><!DOCTYPE svg PUBLIC "-//W3C//DTD SVG 1.1//EN" "http://www.w3.org/Graphics/SVG/1.1/DTD/svg11.dtd"><svg t="1765263140972" class="icon" viewBox="0 0 1024 1024" version="1.1" xmlns="http://www.w3.org/2000/svg" p-id="8445" xmlns:xlink="http://www.w3.org/1999/xlink" width="200" height="200"><path d="M417.24 186.62L492 224v116.36c0 11.05 8.95 20 20 20s20-8.95 20-20V224l74.76-37.38c9.88-4.94 13.88-16.95 8.94-26.83-4.94-9.88-16.95-13.88-26.83-8.94L532 179.28V82.92c0-11.05-8.95-20-20-20s-20 8.95-20 20v96.36l-56.87-28.44c-9.88-4.94-21.89-0.93-26.83 8.94-4.94 9.89-0.94 21.9 8.94 26.84zM751.4 350.68l-108.93 62.89-69.21-39.67c-9.58-5.49-21.8-2.18-27.3 7.41-5.49 9.58-2.18 21.8 7.41 27.3l68.22 39.1-0.85 20.56c-0.46 11.04 8.12 20.35 19.16 20.81 0.28 0.01 0.56 0.02 0.84 0.02 10.66 0 19.52-8.42 19.97-19.17l0.88-21.19 109.82-63.41 69.75 46.05c3.39 2.24 7.22 3.31 11 3.31 6.49 0 12.86-3.16 16.71-8.98 6.09-9.22 3.55-21.62-5.67-27.71l-53.06-35.03 83.45-48.18c9.57-5.52 12.84-17.75 7.32-27.32s-17.75-12.84-27.32-7.32l-83.45 48.18-3.81-63.47c-0.66-11.03-10.16-19.44-21.16-18.77-11.03 0.66-19.43 10.14-18.77 21.16l5 83.43zM841.16 592.62l-43.55 28.75c-9.22 6.08-11.76 18.49-5.67 27.71 3.85 5.83 10.21 8.98 16.71 8.98 3.78 0 7.61-1.07 11-3.31L863.2 626c9.22-6.08 11.76-18.49 5.67-27.71-6.09-9.21-18.49-11.75-27.71-5.67zM912.31 884.03L139.97 111.69c-7.81-7.81-20.47-7.81-28.28 0s-7.81 20.47 0 28.28L237.61 265.9l-3.75 62.42-83.45-48.18c-9.56-5.52-21.8-2.25-27.32 7.32s-2.25 21.8 7.32 27.32l83.45 48.18-53.06 35.03c-9.22 6.09-11.76 18.49-5.67 27.71 3.85 5.83 10.21 8.98 16.71 8.98 3.78 0 7.61-1.07 11-3.31l69.75-46.05 108.95 62.9 0.37 127.34-109.31 63.12-69.75-46.05c-9.22-6.08-21.62-3.55-27.71 5.67-6.09 9.22-3.55 21.62 5.67 27.71l53.06 35.03-83.45 48.18c-9.57 5.52-12.84 17.75-7.32 27.32 3.7 6.42 10.43 10 17.34 10 3.39 0 6.83-0.86 9.98-2.68l83.45-48.18 3.81 63.47c0.64 10.62 9.45 18.8 19.95 18.8 0.4 0 0.81-0.01 1.22-0.04 11.03-0.66 19.43-10.14 18.77-21.16l-5.01-83.43 108.93-62.89L492 673.77V800l-74.76 37.38c-9.88 4.94-13.88 16.95-8.94 26.83 3.5 7.01 10.57 11.06 17.9 11.06 3.01 0 6.06-0.68 8.93-2.12L492 844.72v96.36c0 11.05 8.95 20 20 20s20-8.95 20-20v-96.36l56.87 28.44c9.88 4.94 21.89 0.93 26.83-8.94 4.94-9.88 0.94-21.89-8.94-26.83L532 800V674.2l72.04-41.87 279.99 279.99c3.91 3.91 9.02 5.86 14.14 5.86s10.24-1.95 14.14-5.86c7.82-7.82 7.82-20.48 0-28.29zM275.42 303.7l108.77 108.77-2.28 1.32-109.31-63.11 2.82-46.98z m236.95 335.64l-110.46-63.33-0.37-127.35 11.91-6.92 161.33 161.33-62.41 36.27z" fill="#ffffff" p-id="8446"></path></svg>